<!DOCTYPE svg PUBLIC "-//W3C//DTD SVG 1.1//EN" "http://www.w3.org/Graphics/SVG/1.1/DTD/svg11.dtd">
<!-- Uploaded to: SVG Repo, www.svgrepo.com, Transformed by: SVG Repo Mixer Tools -->
<svg width="800px" height="800px" viewBox="0 0 48 48" xmlns="http://www.w3.org/2000/svg" fill="#000000">
<g id="SVGRepo_bgCarrier" stroke-width="0"/>
<g id="SVGRepo_tracerCarrier" stroke-linecap="round" stroke-linejoin="round"/>
<g id="SVGRepo_iconCarrier">
<title>Free Medical icons</title>
<path d="M40,47.5H8a3,3,0,0,1-3-3V4.5a3,3,0,0,1,3-3H40a3,3,0,0,1,3,3v40A3,3,0,0,1,40,47.5Zm-31-4H39V5.5H9v38Z" fill="#92a8f5"/>
<rect x="22" y="10" width="4" height="10" transform="translate(9 39) rotate(-90)" fill="#92a8f5"/>
<rect x="22" y="10" width="4" height="10" transform="translate(48 30) rotate(-180)" fill="#92a8f5"/>
<path d="M30,29.5H18a2,2,0,0,1,0-4H30A2,2,0,0,1,30,29.5Z" fill="#92a8f5"/>
<path d="M30,38.5H18a2,2,0,0,1,0-4H30A2,2,0,0,1,30,38.5Z" fill="#92a8f5"/>
<rect width="48" height="48" fill="none"/>
</g>
</svg>